<svg version="1.2" xmlns="http://www.w3.org/2000/svg" viewBox="0 0 48 48" width="48" height="48">
	<title>favicon</title>
	<style>
		.s0 { fill: #ff0000 } 
	</style>
	<path class="s0" d="m45.2 0.1q0.6 0 1.1 0.3 0.6 0.2 1 0.6 0.4 0.5 0.6 1 0.2 0.6 0.2 1.2l-0.1 15q0 0.6-0.2 1.1-0.2 0.6-0.7 1-0.4 0.4-0.9 0.6-0.6 0.2-1.2 0.2l-42-0.2q-0.6 0-1.1-0.3-0.6-0.2-1-0.6-0.4-0.5-0.6-1-0.3-0.6-0.3-1.2l0.1-15q0-0.6 0.3-1.1 0.2-0.6 0.6-1 0.5-0.4 1-0.6 0.6-0.2 1.2-0.2zm-0.2 27q0.6 0 1.1 0.2 0.6 0.2 1 0.7 0.4 0.4 0.6 0.9 0.3 0.6 0.3 1.2l-0.1 15q0 0.6-0.3 1.1-0.2 0.6-0.6 1-0.5 0.4-1 0.6-0.6 0.3-1.2 0.3l-15-0.1q-0.6 0-1.1-0.3-0.6-0.2-1-0.6-0.4-0.5-0.6-1-0.2-0.6-0.2-1.2l0.1-15q0-0.6 0.2-1.1 0.2-0.6 0.7-1 0.4-0.4 0.9-0.6 0.6-0.2 1.2-0.2zm-27-0.2q0.6 0 1.1 0.2 0.6 0.3 1 0.7 0.4 0.4 0.6 1 0.3 0.5 0.3 1.1l-0.1 15q0 0.6-0.3 1.2-0.2 0.5-0.6 0.9-0.5 0.4-1 0.7-0.6 0.2-1.2 0.2l-15-0.1q-0.6 0-1.1-0.2-0.6-0.3-1-0.7-0.4-0.4-0.6-1-0.2-0.5-0.2-1.1l0.1-15q0-0.6 0.2-1.2 0.2-0.5 0.7-0.9 0.4-0.5 0.9-0.7 0.6-0.2 1.2-0.2z"/>
</svg>